<svg xmlns="http://www.w3.org/2000/svg" viewBox="0 0 200 120" fill="#1B3A5C">
  <path d="M20 75 L35 45 L60 35 L130 35 L160 50 L175 55 L185 65 L190 75 L185 80 L175 80 L170 85 L165 82 L160 80 L40 80 L35 82 L30 85 L25 80 L20 75 Z"/>
  <rect x="130" y="45" width="25" height="15" rx="2"/>
  <rect x="65" y="45" width="55" height="15" rx="2"/>
  <circle cx="50" cy="85" r="12" fill="white" stroke="#1B3A5C" stroke-width="3"/>
  <circle cx="50" cy="85" r="5" fill="#1B3A5C"/>
  <circle cx="150" cy="85" r="12" fill="white" stroke="#1B3A5C" stroke-width="3"/>
  <circle cx="150" cy="85" r="5" fill="#1B3A5C"/>
  <rect x="62" y="50" width="35" height="8" rx="1"/>
  <rect x="100" y="50" width="20" height="8" rx="1"/>
</svg>
